<svg version="1.1" id="Layer_1" xmlns="http://www.w3.org/2000/svg" xmlns:xlink="http://www.w3.org/1999/xlink" x="0px" y="0px"
	 width="100%" viewBox="0 0 500 500" enable-background="new 0 0 500 500" xml:space="preserve">
<path fill="#000000" opacity="1.000000" stroke="none" 
	d="
M276.000000,501.000000 
	C184.000015,501.000000 92.500046,501.000000 1.000049,501.000000 
	C1.000033,334.333405 1.000033,167.666794 1.000016,1.000139 
	C167.666565,1.000092 334.333130,1.000092 500.999756,1.000046 
	C500.999847,167.666519 500.999847,334.333038 500.999939,500.999786 
	C426.166656,501.000000 351.333344,501.000000 276.000000,501.000000 
M121.827446,288.801025 
	C121.973633,288.954163 122.119812,289.107300 122.163857,289.955139 
	C120.373505,293.425873 118.583160,296.896606 117.313835,299.357300 
	C124.416870,303.013214 130.895569,306.340332 137.364700,309.686005 
	C138.247070,310.142365 139.072968,310.706512 139.939835,311.194427 
	C147.550385,315.478027 150.789429,315.016632 155.828293,307.858124 
	C157.847626,304.989410 159.498917,301.358612 159.869400,297.918732 
	C161.526047,282.536469 158.192230,267.831879 152.169876,253.775650 
	C148.488754,245.183807 146.379883,244.494278 137.401840,247.215408 
	C137.831085,245.248627 138.201111,243.548584 138.573212,241.849014 
	C140.707397,232.101105 137.981247,225.571457 128.873886,221.367538 
	C121.233658,217.840851 113.276901,214.855331 105.223938,212.407822 
	C97.120445,209.944962 93.830956,210.051331 88.540611,220.517212 
	C92.100677,223.905838 96.531090,226.590439 98.779434,230.522690 
	C109.734673,249.682892 119.496788,269.326477 114.281258,293.964142 
	C117.048782,291.773834 119.230614,290.047058 121.827446,288.801025 
M235.784866,283.525757 
	C232.607498,286.603333 229.035660,289.388306 226.435196,292.893829 
	C225.298752,294.425812 225.179810,298.107178 226.258514,299.658112 
	C232.574005,308.738434 239.313858,317.529297 246.120361,326.254089 
	C246.837051,327.172791 249.213852,327.717743 250.322235,327.251587 
	C255.385773,325.121918 257.810577,319.565948 256.612457,314.104736 
	C255.620819,309.584656 255.040527,304.959106 253.811356,300.509216 
	C250.254959,287.634186 246.875717,274.683472 242.567719,262.055573 
	C240.759506,256.755310 237.407471,251.578613 230.306381,249.806473 
	C229.581253,249.837555 228.856125,249.868637 228.417557,249.110397 
	C233.068237,244.730316 237.718918,240.350235 243.362411,235.035126 
	C247.301010,246.473038 251.592758,257.524384 254.845642,268.873535 
	C257.058350,276.593628 257.867676,284.731842 253.770203,292.558289 
	C254.124390,292.784729 254.478592,293.011169 254.832779,293.237579 
	C257.098663,291.828430 259.364532,290.419281 262.618774,288.395447 
	C260.430328,293.178833 258.777985,296.790436 257.568756,299.433533 
	C263.920959,302.509064 269.656403,305.207611 275.312317,308.063599 
	C277.522919,309.179840 279.636902,310.535522 281.651611,311.981781 
	C286.159637,315.217834 289.913361,314.052826 293.653931,310.513245 
	C300.716736,303.829926 301.314087,295.405884 300.468201,286.544769 
	C300.003235,281.673950 299.422974,276.814148 299.740143,271.943024 
	C302.126953,289.156464 304.513733,306.369904 306.919006,323.716583 
	C311.803375,321.377869 314.983765,317.570099 315.895599,312.119537 
	C316.718323,307.201599 317.093597,302.208282 317.933655,297.293915 
	C319.379333,288.836334 321.032898,280.414276 322.601746,271.963715 
	C338.137543,275.494019 342.015533,279.181030 342.770233,290.720215 
	C330.111786,283.817413 322.840363,285.665253 321.048737,296.577240 
	C334.787964,299.184875 344.961121,308.041107 355.164520,316.676300 
	C364.672485,310.972107 365.367920,308.818115 361.201782,299.057617 
	C358.605255,292.974518 356.117523,286.845001 353.849243,281.382324 
	C356.722137,278.863800 359.246216,276.651062 361.942322,274.287537 
	C362.313812,276.059235 362.682190,277.938171 363.103729,279.805145 
	C364.819977,287.405884 366.117767,295.135284 368.381622,302.570068 
	C371.711578,313.506073 377.016052,315.395691 386.460724,309.104645 
	C390.924225,306.131561 394.700256,302.126373 398.907471,298.485229 
	C401.078613,302.810608 403.539581,307.713287 405.998291,312.611481 
	C413.495819,308.489136 415.408447,305.324005 414.660889,297.665192 
	C413.142090,282.105194 412.180023,266.439301 409.590271,251.052399 
	C407.656525,239.563248 403.772064,228.366470 400.243103,217.201706 
	C399.043060,213.404984 395.900635,209.571991 391.491577,210.290283 
	C386.886292,211.040543 384.515259,215.264786 382.559082,219.952698 
	C388.905731,221.139374 391.313263,225.575867 393.080170,230.520874 
	C394.413513,234.252380 395.984375,237.967667 396.726288,241.829117 
	C399.015320,253.743317 400.957794,265.724091 403.248688,278.909546 
	C388.933136,260.200653 375.695984,242.827011 362.370148,225.521591 
	C356.937073,218.465988 355.538971,218.541351 350.087830,225.692841 
	C349.304291,226.720856 348.722076,227.902283 348.183563,228.787628 
	C357.041718,240.944962 358.295410,255.073273 361.414429,269.604309 
	C356.852692,268.485199 353.008179,267.715240 349.301758,266.517792 
	C348.306305,266.196167 347.336060,264.680542 347.023407,263.531006 
	C343.204834,249.490906 339.429504,235.437607 335.840363,221.337479 
	C334.899841,217.642502 334.637573,213.774872 334.063812,209.986542 
	C333.415497,209.753952 332.767181,209.521347 332.118866,209.288757 
	C329.473541,212.883484 325.401642,216.139191 324.451691,220.136810 
	C321.659790,231.885361 320.107544,243.928497 318.030151,256.089050 
	C315.456116,255.270660 313.243805,254.619492 311.067139,253.865494 
	C304.366241,251.544357 297.792053,256.599426 297.301697,264.596558 
	C296.811096,263.878113 296.203766,263.212708 295.849152,262.432434 
	C293.799377,257.921906 292.103882,253.220535 289.707336,248.906601 
	C287.725769,245.339691 284.498444,243.844040 280.430206,246.185669 
	C279.703278,246.604095 278.824982,246.759460 277.530762,247.202606 
	C277.911682,245.428452 278.123932,244.312439 278.392242,243.210068 
	C281.198425,231.680695 278.650543,225.492859 267.806580,220.681854 
	C259.831757,217.143768 251.476013,214.341904 243.093140,211.883148 
	C235.908173,209.775742 230.654404,213.608368 229.062378,220.364716 
	C233.203995,224.439133 237.003036,228.176544 240.802063,231.913940 
	C240.481354,232.305298 240.160645,232.696655 239.839951,233.087997 
	C238.886353,232.906769 237.921890,232.769638 236.980804,232.537674 
	C222.014297,228.848953 208.280212,222.237823 195.477798,213.893997 
	C190.667023,210.758621 187.913193,211.467407 184.917084,215.596573 
	C183.848389,217.069427 181.082123,227.721207 181.296982,230.530914 
	C182.147385,241.651810 183.398346,252.758469 183.774368,263.894958 
	C184.208084,276.740234 183.875183,289.611359 183.875183,302.471283 
	C183.418152,302.533264 182.961136,302.595245 182.504105,302.657196 
	C168.083633,273.627747 165.564346,242.230179 165.384857,209.917877 
	C159.208664,213.199829 156.226318,217.784821 156.015533,224.426483 
	C155.399048,243.850494 157.665192,262.962830 162.217468,281.796570 
	C164.787582,292.429596 167.432541,303.135040 174.383881,312.025513 
	C178.708466,317.556488 183.236053,317.847656 187.411026,312.254730 
	C190.220520,308.491058 191.926910,303.903870 193.827774,300.258575 
	C194.258377,302.246216 194.873123,305.083740 195.502777,307.990082 
	C202.999619,305.017212 205.245300,301.054596 203.955200,294.286926 
	C202.159592,284.867493 200.524429,275.417450 198.838882,266.081787 
	C201.126587,265.283722 202.961563,264.643585 205.967438,263.595001 
	C208.653793,279.325226 211.277466,294.688477 213.891113,309.992950 
	C220.307724,307.215179 223.175491,303.288696 222.309036,296.751923 
	C220.655151,284.274750 218.567917,271.855011 216.632278,259.226868 
	C220.648682,257.266205 225.071777,257.773987 227.563858,262.404968 
	C231.268692,269.289551 233.838470,276.784912 236.581696,283.935913 
	C236.581696,283.935913 236.263199,283.975403 235.784866,283.525757 
M363.181488,212.683792 
	C363.999054,212.820312 364.944763,212.737411 365.613861,213.128174 
	C370.845764,216.183701 372.326691,209.994278 375.903137,209.025894 
	C375.229218,206.824005 374.555267,204.622116 373.576538,201.424286 
	C378.877045,194.631851 385.053589,186.716827 391.230133,178.801804 
	C390.953979,178.358002 390.677795,177.914200 390.401611,177.470398 
	C384.974091,179.855469 379.546570,182.240524 374.062317,184.650528 
	C374.062317,177.379074 374.062317,170.138885 374.062317,162.898697 
	C373.636200,162.662018 373.210083,162.425323 372.783966,162.188629 
	C367.880310,166.710724 362.976654,171.232819 357.899933,175.914520 
	C354.998688,170.546585 352.390411,164.979553 349.050873,159.892563 
	C347.638428,157.740997 344.361450,155.012558 342.517487,155.391983 
	C340.105408,155.888351 337.555756,158.870071 336.380737,161.394836 
	C335.031036,164.294968 334.877594,167.846283 334.628723,171.146729 
	C333.859772,181.344528 333.292664,191.557541 332.653137,201.670578 
	C337.398407,202.175934 341.208618,202.010223 344.635620,203.076370 
	C350.221710,204.814194 357.946198,203.676010 359.254456,212.401550 
	C359.292236,212.653763 361.280334,212.613541 363.181488,212.683792 
M284.649200,328.250366 
	C273.499725,328.675446 262.729767,330.458282 254.059479,338.241028 
	C251.158768,340.844788 248.878021,344.139221 246.313889,347.117950 
	C246.635925,347.445343 246.957947,347.772736 247.279984,348.100128 
	C248.810989,347.579712 250.350861,347.083832 251.871552,346.534912 
	C261.948944,342.897095 272.231354,340.599945 283.055603,340.843750 
	C300.875671,341.245209 318.711975,341.111847 336.519989,341.777039 
	C344.130249,342.061340 349.198517,338.621918 353.443756,333.178131 
	C354.409668,331.939453 354.359528,329.908386 354.777039,328.242035 
	C353.379517,328.083130 351.982758,327.802216 350.584290,327.793640 
	C348.423309,327.780365 346.261475,328.027405 344.099518,328.035736 
	C324.604858,328.110901 305.110107,328.158051 284.649200,328.250366 
M363.777527,331.101196 
	C360.823273,333.590698 357.868988,336.080170 354.594910,338.839142 
	C359.648682,342.800812 364.228455,343.236176 367.555023,341.129578 
	C371.906891,338.373718 375.885162,334.446625 377.515045,328.135223 
	C372.461639,328.644592 367.858765,326.187042 363.777527,331.101196 
M384.667816,329.530182 
	C382.008759,331.813446 379.106079,333.882111 376.811951,336.486816 
	C375.909027,337.511902 376.365570,339.734314 376.203064,341.411530 
	C378.011780,341.157532 380.325470,341.518860 381.530823,340.529663 
	C384.657715,337.963501 387.296906,334.803070 390.719727,331.272308 
	C388.361450,330.495850 386.875885,330.006744 384.667816,329.530182 
z"/>
<path fill="#F7F7F7" opacity="1.000000" stroke="none" 
	d="
M298.894714,271.949371 
	C299.422974,276.814148 300.003235,281.673950 300.468201,286.544769 
	C301.314087,295.405884 300.716736,303.829926 293.653931,310.513245 
	C289.913361,314.052826 286.159637,315.217834 281.651611,311.981781 
	C279.636902,310.535522 277.522919,309.179840 275.312317,308.063599 
	C269.656403,305.207611 263.920959,302.509064 257.568756,299.433533 
	C258.777985,296.790436 260.430328,293.178833 262.618774,288.395447 
	C259.364532,290.419281 257.098663,291.828430 254.832779,293.237579 
	C254.478592,293.011169 254.124390,292.784729 253.770203,292.558289 
	C257.867676,284.731842 257.058350,276.593628 254.845642,268.873535 
	C251.592758,257.524384 247.301010,246.473038 243.362411,235.035126 
	C237.718918,240.350235 233.068237,244.730316 228.460571,249.595093 
	C229.323898,250.091446 230.144196,250.103088 230.964508,250.114716 
	C237.407471,251.578613 240.759506,256.755310 242.567719,262.055573 
	C246.875717,274.683472 250.254959,287.634186 253.811356,300.509216 
	C255.040527,304.959106 255.620819,309.584656 256.612457,314.104736 
	C257.810577,319.565948 255.385773,325.121918 250.322235,327.251587 
	C249.213852,327.717743 246.837051,327.172791 246.120361,326.254089 
	C239.313858,317.529297 232.574005,308.738434 226.258514,299.658112 
	C225.179810,298.107178 225.298752,294.425812 226.435196,292.893829 
	C229.035660,289.388306 232.607498,286.603333 236.020874,284.153870 
	C232.999969,290.156708 237.458572,293.196045 239.506287,296.965118 
	C239.942108,296.842804 240.377930,296.720459 240.813751,296.598145 
	C239.506271,292.405548 238.198792,288.212952 236.891312,284.020355 
	C233.838470,276.784912 231.268692,269.289551 227.563858,262.404968 
	C225.071777,257.773987 220.648682,257.266205 216.632278,259.226868 
	C218.567917,271.855011 220.655151,284.274750 222.309036,296.751923 
	C223.175491,303.288696 220.307724,307.215179 213.891113,309.992950 
	C211.277466,294.688477 208.653793,279.325226 205.967438,263.595001 
	C202.961563,264.643585 201.126587,265.283722 198.838882,266.081787 
	C200.524429,275.417450 202.159592,284.867493 203.955200,294.286926 
	C205.245300,301.054596 202.999619,305.017212 195.502777,307.990082 
	C194.873123,305.083740 194.258377,302.246216 193.827774,300.258575 
	C191.926910,303.903870 190.220520,308.491058 187.411026,312.254730 
	C183.236053,317.847656 178.708466,317.556488 174.383881,312.025513 
	C167.432541,303.135040 164.787582,292.429596 162.217468,281.796570 
	C157.665192,262.962830 155.399048,243.850494 156.015533,224.426483 
	C156.226318,217.784821 159.208664,213.199829 165.384857,209.917877 
	C165.564346,242.230179 168.083633,273.627747 182.504105,302.657196 
	C182.961136,302.595245 183.418152,302.533264 183.875183,302.471283 
	C183.875183,289.611359 184.208084,276.740234 183.774368,263.894958 
	C183.398346,252.758469 182.147385,241.651810 181.296982,230.530914 
	C181.082123,227.721207 183.848389,217.069427 184.917084,215.596573 
	C187.913193,211.467407 190.667023,210.758621 195.477798,213.893997 
	C208.280212,222.237823 222.014297,228.848953 236.980804,232.537674 
	C237.921890,232.769638 238.886353,232.906769 239.839951,233.087997 
	C240.160645,232.696655 240.481354,232.305298 240.802063,231.913940 
	C237.003036,228.176544 233.203995,224.439133 229.062378,220.364716 
	C230.654404,213.608368 235.908173,209.775742 243.093140,211.883148 
	C251.476013,214.341904 259.831757,217.143768 267.806580,220.681854 
	C278.650543,225.492859 281.198425,231.680695 278.392242,243.210068 
	C278.123932,244.312439 277.911682,245.428452 277.530762,247.202606 
	C278.824982,246.759460 279.703278,246.604095 280.430206,246.185669 
	C284.498444,243.844040 287.725769,245.339691 289.707336,248.906601 
	C292.103882,253.220535 293.799377,257.921906 295.849152,262.432434 
	C296.203766,263.212708 296.811096,263.878113 297.897156,264.505585 
	C298.677399,265.551270 298.862183,266.687897 298.578064,267.686157 
	C298.420044,269.055695 298.730896,270.563599 299.004150,272.041992 
	C298.966522,272.012482 298.894714,271.949371 298.894714,271.949371 
M197.282349,262.090637 
	C197.036118,262.525909 196.789902,262.961151 196.543671,263.396454 
	C197.029266,263.263947 197.514862,263.131439 198.721832,263.004150 
	C202.016464,259.134338 204.515625,255.328033 201.740112,249.797760 
	C199.590897,245.515427 201.702988,241.751999 205.026672,238.707626 
	C206.092621,237.731262 207.177063,236.775101 208.378876,235.696823 
	C203.137070,232.986786 198.199341,230.433945 192.650803,227.565323 
	C192.942551,229.774338 193.126740,231.382690 193.370834,232.981918 
	C194.847443,242.655930 196.337723,252.327835 197.282349,262.090637 
M266.170471,284.720978 
	C267.429626,283.427948 268.619019,282.057068 269.959930,280.855286 
	C275.909271,275.523163 280.909332,274.703033 286.935486,278.637299 
	C285.866425,280.458130 285.055542,282.511383 283.671570,284.048706 
	C281.211578,286.781219 278.882629,289.870728 274.199707,287.127014 
	C272.288605,286.007294 269.272064,286.306702 268.910065,289.030914 
	C276.315674,293.133301 283.243561,296.971069 291.527832,301.560181 
	C289.917145,292.992035 288.509460,285.503754 287.186798,277.226898 
	C284.654297,270.965942 282.423096,264.558258 279.473694,258.500305 
	C277.767395,254.995682 275.007751,254.984924 272.600983,258.473846 
	C271.101135,260.648132 269.175049,262.530121 267.695984,264.716309 
	C266.960693,265.803192 266.585693,267.252747 266.419495,268.584625 
	C265.788330,273.641418 265.308990,278.717133 264.130219,284.244110 
	C263.875122,285.157684 263.620056,286.071289 263.364990,286.984863 
	C263.621124,287.099091 263.877289,287.213318 264.133423,287.327515 
	C264.624268,286.599121 265.115112,285.870728 266.170471,284.720978 
M265.152039,255.962936 
	C269.861237,251.606705 270.356537,245.643402 268.749695,240.435745 
	C266.891876,234.414566 261.110840,231.640106 255.007553,229.625595 
	C258.252716,238.828049 261.310303,247.498566 265.152039,255.962936 
M217.203186,239.289215 
	C215.217575,238.548019 213.231964,237.806839 210.480820,236.779877 
	C211.609589,241.673447 212.609116,246.006760 213.856201,251.413223 
	C219.249054,248.337799 223.673004,245.814911 228.775085,242.905304 
	C224.426102,241.622192 221.158173,240.658020 217.203186,239.289215 
M261.932312,287.675781 
	C261.922668,288.068848 261.913055,288.461945 261.903442,288.855011 
	C262.264587,288.790741 262.625702,288.726471 262.986847,288.662170 
	C262.876984,288.087524 262.767120,287.512878 261.932312,287.675781 
z"/>
<path fill="#F8F8F8" opacity="1.000000" stroke="none" 
	d="
M299.046936,267.824554 
	C298.862183,266.687897 298.677399,265.551270 298.222229,264.196777 
	C297.792053,256.599426 304.366241,251.544357 311.067139,253.865494 
	C313.243805,254.619492 315.456116,255.270660 318.030151,256.089050 
	C320.107544,243.928497 321.659790,231.885361 324.451691,220.136810 
	C325.401642,216.139191 329.473541,212.883484 332.118866,209.288757 
	C332.767181,209.521347 333.415497,209.753952 334.063812,209.986542 
	C334.637573,213.774872 334.899841,217.642502 335.840363,221.337479 
	C339.429504,235.437607 343.204834,249.490906 347.023407,263.531006 
	C347.336060,264.680542 348.306305,266.196167 349.301758,266.517792 
	C353.008179,267.715240 356.852692,268.485199 361.414429,269.604309 
	C358.295410,255.073273 357.041718,240.944962 348.183563,228.787628 
	C348.722076,227.902283 349.304291,226.720856 350.087830,225.692841 
	C355.538971,218.541351 356.937073,218.465988 362.370148,225.521591 
	C375.695984,242.827011 388.933136,260.200653 403.248688,278.909546 
	C400.957794,265.724091 399.015320,253.743317 396.726288,241.829117 
	C395.984375,237.967667 394.413513,234.252380 393.080170,230.520874 
	C391.313263,225.575867 388.905731,221.139374 382.559082,219.952698 
	C384.515259,215.264786 386.886292,211.040543 391.491577,210.290283 
	C395.900635,209.571991 399.043060,213.404984 400.243103,217.201706 
	C403.772064,228.366470 407.656525,239.563248 409.590271,251.052399 
	C412.180023,266.439301 413.142090,282.105194 414.660889,297.665192 
	C415.408447,305.324005 413.495819,308.489136 405.998291,312.611481 
	C403.539581,307.713287 401.078613,302.810608 398.907471,298.485229 
	C394.700256,302.126373 390.924225,306.131561 386.460724,309.104645 
	C377.016052,315.395691 371.711578,313.506073 368.381622,302.570068 
	C366.117767,295.135284 364.819977,287.405884 363.103729,279.805145 
	C362.682190,277.938171 362.313812,276.059235 361.942322,274.287537 
	C359.246216,276.651062 356.722137,278.863800 353.849243,281.382324 
	C356.117523,286.845001 358.605255,292.974518 361.201782,299.057617 
	C365.367920,308.818115 364.672485,310.972107 355.164520,316.676300 
	C344.961121,308.041107 334.787964,299.184875 321.048737,296.577240 
	C322.840363,285.665253 330.111786,283.817413 342.770233,290.720215 
	C342.015533,279.181030 338.137543,275.494019 322.601746,271.963715 
	C321.032898,280.414276 319.379333,288.836334 317.933655,297.293915 
	C317.093597,302.208282 316.718323,307.201599 315.895599,312.119537 
	C314.983765,317.570099 311.803375,321.377869 306.919006,323.716583 
	C304.513733,306.369904 302.126953,289.156464 299.317444,271.946198 
	C298.894714,271.949371 298.966522,272.012482 299.204529,271.651215 
	C299.310699,270.134827 299.178833,268.979675 299.046936,267.824554 
M370.946503,257.312073 
	C370.709503,257.256500 370.472534,257.200928 370.235504,257.145355 
	C370.244629,257.582672 370.253754,258.019958 370.469269,259.243256 
	C371.316559,264.142090 371.896545,269.106079 373.071716,273.924957 
	C374.987579,281.780914 376.803436,289.721985 379.586945,297.286560 
	C381.817841,303.349213 386.554688,303.878418 391.377960,299.493439 
	C393.063477,297.961090 394.687592,296.361237 396.935486,294.226410 
	C388.319092,282.109161 379.709534,270.001495 370.946503,257.312073 
M331.176819,255.202927 
	C330.333893,252.042007 329.490967,248.881088 328.335419,244.547852 
	C327.177856,250.046326 326.279602,254.313004 325.356750,258.696442 
	C327.992004,259.641235 330.188019,260.428589 332.957214,261.421417 
	C332.252289,259.042511 331.798737,257.511871 331.176819,255.202927 
z"/>
<path fill="#F8F8F8" opacity="1.000000" stroke="none" 
	d="
M121.412445,288.320282 
	C119.230614,290.047058 117.048782,291.773834 114.281258,293.964142 
	C119.496788,269.326477 109.734673,249.682892 98.779434,230.522690 
	C96.531090,226.590439 92.100677,223.905838 88.540611,220.517212 
	C93.830956,210.051331 97.120445,209.944962 105.223938,212.407822 
	C113.276901,214.855331 121.233658,217.840851 128.873886,221.367538 
	C137.981247,225.571457 140.707397,232.101105 138.573212,241.849014 
	C138.201111,243.548584 137.831085,245.248627 137.401840,247.215408 
	C146.379883,244.494278 148.488754,245.183807 152.169876,253.775650 
	C158.192230,267.831879 161.526047,282.536469 159.869400,297.918732 
	C159.498917,301.358612 157.847626,304.989410 155.828293,307.858124 
	C150.789429,315.016632 147.550385,315.478027 139.939835,311.194427 
	C139.072968,310.706512 138.247070,310.142365 137.364700,309.686005 
	C130.895569,306.340332 124.416870,303.013214 117.313835,299.357300 
	C118.583160,296.896606 120.373505,293.425873 122.494247,289.470490 
	C123.431480,288.157227 124.038322,287.328644 124.805183,286.371552 
	C125.143913,285.878967 125.322632,285.514862 125.798103,284.949524 
	C127.604240,283.239471 128.964249,281.532715 130.651459,280.259613 
	C135.425919,276.657013 140.449875,274.043732 146.454834,278.366211 
	C144.161972,281.813812 142.062241,285.191223 139.229507,287.760468 
	C138.312164,288.592468 135.477219,287.276428 133.511978,286.995056 
	C130.758133,286.600708 128.698166,287.197357 128.603577,289.210388 
	C136.127045,293.323212 142.991531,297.075806 151.502274,301.728363 
	C149.699799,292.977844 148.161499,285.509857 146.831299,277.706360 
	C144.508636,271.136475 142.428299,264.662842 139.289276,258.751404 
	C137.185440,254.789413 135.126831,255.402039 132.227386,258.808167 
	C128.079575,263.680756 124.765015,268.472687 126.167473,275.492432 
	C126.675629,278.035980 125.250748,280.965729 124.451698,283.869080 
	C124.018013,284.579163 123.840530,285.139404 123.407166,285.845703 
	C122.571671,286.767914 121.992058,287.544098 121.412445,288.320282 
M120.949287,246.537567 
	C122.044014,249.869125 123.138748,253.200684 124.291504,256.708832 
	C128.107117,253.223114 130.410629,244.402435 128.839096,240.348785 
	C127.085037,235.824310 119.530289,230.600189 114.695061,230.529755 
	C116.723511,235.595306 118.759918,240.680725 120.949287,246.537567 
z"/>
<path fill="#F6F6F6" opacity="1.000000" stroke="none" 
	d="
M362.770264,212.696747 
	C361.280334,212.613541 359.292236,212.653763 359.254456,212.401550 
	C357.946198,203.676010 350.221710,204.814194 344.635620,203.076370 
	C341.208618,202.010223 337.398407,202.175934 332.653137,201.670578 
	C333.292664,191.557541 333.859772,181.344528 334.628723,171.146729 
	C334.877594,167.846283 335.031036,164.294968 336.380737,161.394836 
	C337.555756,158.870071 340.105408,155.888351 342.517487,155.391983 
	C344.361450,155.012558 347.638428,157.740997 349.050873,159.892563 
	C352.390411,164.979553 354.998688,170.546585 357.899933,175.914520 
	C362.976654,171.232819 367.880310,166.710724 372.783966,162.188629 
	C373.210083,162.425323 373.636200,162.662018 374.062317,162.898697 
	C374.062317,170.138885 374.062317,177.379074 374.062317,184.650528 
	C379.546570,182.240524 384.974091,179.855469 390.401611,177.470398 
	C390.677795,177.914200 390.953979,178.358002 391.230133,178.801804 
	C385.053589,186.716827 378.877045,194.631851 373.576538,201.424286 
	C374.555267,204.622116 375.229218,206.824005 375.903137,209.025894 
	C372.326691,209.994278 370.845764,216.183701 365.613861,213.128174 
	C364.944763,212.737411 363.999054,212.820312 362.770264,212.696747 
M362.476013,197.759201 
	C363.735870,198.444763 364.995758,199.130341 366.242371,199.808670 
	C369.258820,196.590057 372.073273,193.586990 374.887726,190.583923 
	C374.656799,190.150772 374.425873,189.717636 374.194946,189.284485 
	C370.671661,190.876419 367.148376,192.468338 363.387268,194.167709 
	C363.387268,189.391891 363.387268,184.715881 363.387268,180.001419 
	C359.473633,183.320709 355.783691,186.450256 351.727051,189.890854 
	C348.857239,185.916580 346.495392,182.645752 344.192566,179.456650 
	C344.192566,184.528305 344.192566,189.657623 344.192566,194.010330 
	C350.547180,195.214355 356.191437,196.283798 362.476013,197.759201 
z"/>
<path fill="#F8F8F8" opacity="1.000000" stroke="none" 
	d="
M285.132294,328.231873 
	C305.110107,328.158051 324.604858,328.110901 344.099518,328.035736 
	C346.261475,328.027405 348.423309,327.780365 350.584290,327.793640 
	C351.982758,327.802216 353.379517,328.083130 354.777039,328.242035 
	C354.359528,329.908386 354.409668,331.939453 353.443756,333.178131 
	C349.198517,338.621918 344.130249,342.061340 336.519989,341.777039 
	C318.711975,341.111847 300.875671,341.245209 283.055603,340.843750 
	C272.231354,340.599945 261.948944,342.897095 251.871552,346.534912 
	C250.350861,347.083832 248.810989,347.579712 247.279984,348.100128 
	C246.957947,347.772736 246.635925,347.445343 246.313889,347.117950 
	C248.878021,344.139221 251.158768,340.844788 254.059479,338.241028 
	C262.729767,330.458282 273.499725,328.675446 285.132294,328.231873 
z"/>
<path fill="#F2F2F2" opacity="1.000000" stroke="none" 
	d="
M364.039246,330.830139 
	C367.858765,326.187042 372.461639,328.644592 377.515045,328.135223 
	C375.885162,334.446625 371.906891,338.373718 367.555023,341.129578 
	C364.228455,343.236176 359.648682,342.800812 354.594910,338.839142 
	C357.868988,336.080170 360.823273,333.590698 364.039246,330.830139 
z"/>
<path fill="#F1F1F1" opacity="1.000000" stroke="none" 
	d="
M385.029053,329.523895 
	C386.875885,330.006744 388.361450,330.495850 390.719727,331.272308 
	C387.296906,334.803070 384.657715,337.963501 381.530823,340.529663 
	C380.325470,341.518860 378.011780,341.157532 376.203064,341.411499 
	C376.365570,339.734314 375.909027,337.511902 376.811951,336.486816 
	C379.106079,333.882111 382.008759,331.813446 385.029053,329.523895 
z"/>
<path fill="#121212" opacity="1.000000" stroke="none" 
	d="
M236.736511,283.978149 
	C238.198792,288.212952 239.506271,292.405548 240.813751,296.598145 
	C240.377930,296.720459 239.942108,296.842804 239.506287,296.965118 
	C237.458572,293.196045 232.999969,290.156708 236.260040,284.378662 
	C236.263199,283.975403 236.581696,283.935913 236.736511,283.978149 
z"/>
<path fill="#F8F8F8" opacity="1.000000" stroke="none" 
	d="
M230.635437,249.960602 
	C230.144196,250.103088 229.323898,250.091446 228.317291,249.989761 
	C228.856125,249.868637 229.581253,249.837555 230.635437,249.960602 
z"/>
<path fill="#000000" opacity="1.000000" stroke="none" 
	d="
M287.203613,277.941895 
	C280.909332,274.703033 275.909271,275.523163 269.959930,280.855286 
	C268.619019,282.057068 267.429626,283.427948 265.699310,284.580627 
	C265.076385,284.222107 264.924652,284.003967 264.772888,283.785797 
	C265.308990,278.717133 265.788330,273.641418 266.419495,268.584625 
	C266.585693,267.252747 266.960693,265.803192 267.695984,264.716309 
	C269.175049,262.530121 271.101135,260.648132 272.600983,258.473846 
	C275.007751,254.984924 277.767395,254.995682 279.473694,258.500305 
	C282.423096,264.558258 284.654297,270.965942 287.173340,277.607727 
	C287.159851,277.988586 287.203613,277.941895 287.203613,277.941895 
z"/>
<path fill="#050505" opacity="1.000000" stroke="none" 
	d="
M197.823425,262.000458 
	C196.337723,252.327835 194.847443,242.655930 193.370834,232.981918 
	C193.126740,231.382690 192.942551,229.774338 192.650803,227.565323 
	C198.199341,230.433945 203.137070,232.986786 208.378876,235.696823 
	C207.177063,236.775101 206.092621,237.731262 205.026672,238.707626 
	C201.702988,241.751999 199.590897,245.515427 201.740112,249.797760 
	C204.515625,255.328033 202.016464,259.134338 198.355591,262.745056 
	C197.934036,262.324158 197.878738,262.162323 197.823425,262.000458 
z"/>
<path fill="#080808" opacity="1.000000" stroke="none" 
	d="
M287.130829,278.002014 
	C288.509460,285.503754 289.917145,292.992035 291.527832,301.560181 
	C283.243561,296.971069 276.315674,293.133301 268.910065,289.030914 
	C269.272064,286.306702 272.288605,286.007294 274.199707,287.127014 
	C278.882629,289.870728 281.211578,286.781219 283.671570,284.048706 
	C285.055542,282.511383 285.866425,280.458130 287.069550,278.289612 
	C287.203613,277.941895 287.159851,277.988586 287.130829,278.002014 
z"/>
<path fill="#080808" opacity="1.000000" stroke="none" 
	d="
M264.759949,256.066010 
	C261.310303,247.498566 258.252716,238.828049 255.007553,229.625595 
	C261.110840,231.640106 266.891876,234.414566 268.749695,240.435745 
	C270.356537,245.643402 269.861237,251.606705 264.759949,256.066010 
z"/>
<path fill="#090909" opacity="1.000000" stroke="none" 
	d="
M217.546722,239.491547 
	C221.158173,240.658020 224.426102,241.622192 228.775085,242.905304 
	C223.673004,245.814911 219.249054,248.337799 213.856201,251.413223 
	C212.609116,246.006760 211.609589,241.673447 210.480820,236.779877 
	C213.231964,237.806839 215.217575,238.548019 217.546722,239.491547 
z"/>
<path fill="#000000" opacity="1.000000" stroke="none" 
	d="
M298.578064,267.686157 
	C299.178833,268.979675 299.310699,270.134827 299.242157,271.680725 
	C298.730896,270.563599 298.420044,269.055695 298.578064,267.686157 
z"/>
<path fill="#F8F8F8" opacity="1.000000" stroke="none" 
	d="
M197.552887,262.045532 
	C197.878738,262.162323 197.934036,262.324158 197.994904,262.742432 
	C197.514862,263.131439 197.029266,263.263947 196.543671,263.396423 
	C196.789902,262.961151 197.036118,262.525909 197.552887,262.045532 
z"/>
<path fill="#000000" opacity="1.000000" stroke="none" 
	d="
M265.417053,284.791290 
	C265.115112,285.870728 264.624268,286.599121 264.133423,287.327515 
	C263.877289,287.213318 263.621124,287.099091 263.364990,286.984863 
	C263.620056,286.071289 263.875122,285.157684 264.451569,284.014954 
	C264.924652,284.003967 265.076385,284.222107 265.417053,284.791290 
z"/>
<path fill="#000000" opacity="1.000000" stroke="none" 
	d="
M262.294769,287.307007 
	C262.767120,287.512878 262.876984,288.087524 262.986847,288.662170 
	C262.625702,288.726471 262.264587,288.790741 261.903442,288.855011 
	C261.913055,288.461945 261.922668,288.068848 262.294769,287.307007 
z"/>
<path fill="#040404" opacity="1.000000" stroke="none" 
	d="
M371.099976,257.893829 
	C379.709534,270.001495 388.319092,282.109161 396.935486,294.226410 
	C394.687592,296.361237 393.063477,297.961090 391.377960,299.493439 
	C386.554688,303.878418 381.817841,303.349213 379.586945,297.286560 
	C376.803436,289.721985 374.987579,281.780914 373.071716,273.924957 
	C371.896545,269.106079 371.316559,264.142090 370.582886,258.720581 
	C370.830963,258.096588 370.965454,257.995209 371.099976,257.893829 
z"/>
<path fill="#101010" opacity="1.000000" stroke="none" 
	d="
M331.260986,255.592072 
	C331.798737,257.511871 332.252289,259.042511 332.957214,261.421417 
	C330.188019,260.428589 327.992004,259.641235 325.356750,258.696442 
	C326.279602,254.313004 327.177856,250.046326 328.335419,244.547852 
	C329.490967,248.881088 330.333893,252.042007 331.260986,255.592072 
z"/>
<path fill="#040404" opacity="1.000000" stroke="none" 
	d="
M370.479675,258.327606 
	C370.253754,258.019958 370.244629,257.582672 370.235535,257.145355 
	C370.472534,257.200928 370.709503,257.256500 371.023254,257.602966 
	C370.965454,257.995209 370.830963,258.096588 370.479675,258.327606 
z"/>
<path fill="#000000" opacity="1.000000" stroke="none" 
	d="
M124.707901,283.719238 
	C125.250748,280.965729 126.675629,278.035980 126.167473,275.492432 
	C124.765015,268.472687 128.079575,263.680756 132.227386,258.808167 
	C135.126831,255.402039 137.185440,254.789413 139.289276,258.751404 
	C142.428299,264.662842 144.508636,271.136475 146.771149,277.670471 
	C146.502899,277.970001 146.363281,277.982178 146.363281,277.982178 
	C140.449875,274.043732 135.425919,276.657013 130.651459,280.259613 
	C128.964249,281.532715 127.604240,283.239471 125.629059,284.575378 
	C125.011459,284.174713 124.859673,283.946991 124.707901,283.719238 
z"/>
<path fill="#090909" opacity="1.000000" stroke="none" 
	d="
M146.454834,278.366211 
	C146.363281,277.982178 146.502899,277.970001 146.563049,278.005920 
	C148.161499,285.509857 149.699799,292.977844 151.502274,301.728363 
	C142.991531,297.075806 136.127045,293.323212 128.603577,289.210388 
	C128.698166,287.197357 130.758133,286.600708 133.511978,286.995056 
	C135.477219,287.276428 138.312164,288.592468 139.229507,287.760468 
	C142.062241,285.191223 144.161972,281.813812 146.454834,278.366211 
z"/>
<path fill="#090909" opacity="1.000000" stroke="none" 
	d="
M120.872803,246.151855 
	C118.759918,240.680725 116.723511,235.595306 114.695061,230.529755 
	C119.530289,230.600189 127.085037,235.824310 128.839096,240.348785 
	C130.410629,244.402435 128.107117,253.223114 124.291504,256.708832 
	C123.138748,253.200684 122.044014,249.869125 120.872803,246.151855 
z"/>
<path fill="#000000" opacity="1.000000" stroke="none" 
	d="
M121.619949,288.560669 
	C121.992058,287.544098 122.571671,286.767914 123.649513,286.049683 
	C124.313553,286.238464 124.479370,286.369263 124.645172,286.500061 
	C124.038322,287.328644 123.431480,288.157227 122.545319,289.123138 
	C122.119812,289.107300 121.973633,288.954163 121.619949,288.560669 
z"/>
<path fill="#000000" opacity="1.000000" stroke="none" 
	d="
M123.905396,285.903687 
	C123.840530,285.139404 124.018013,284.579163 124.451691,283.869080 
	C124.859673,283.946991 125.011459,284.174713 125.332306,284.776611 
	C125.322632,285.514862 125.143913,285.878967 124.805191,286.371552 
	C124.479370,286.369263 124.313553,286.238464 123.905396,285.903687 
z"/>
<path fill="#0A0A0A" opacity="1.000000" stroke="none" 
	d="
M362.155853,197.556213 
	C356.191437,196.283798 350.547180,195.214355 344.192566,194.010330 
	C344.192566,189.657623 344.192566,184.528305 344.192566,179.456650 
	C346.495392,182.645752 348.857239,185.916580 351.727051,189.890854 
	C355.783691,186.450256 359.473633,183.320709 363.387268,180.001419 
	C363.387268,184.715881 363.387268,189.391891 363.387268,194.167709 
	C367.148376,192.468338 370.671661,190.876419 374.194946,189.284485 
	C374.425873,189.717636 374.656799,190.150772 374.887726,190.583923 
	C372.073273,193.586990 369.258820,196.590057 366.242371,199.808670 
	C364.995758,199.130341 363.735870,198.444763 362.155853,197.556213 
z"/>
</svg>